<svg xmlns="http://www.w3.org/2000/svg" width="101" height="16" fill="none"><path fill="#777" fill-rule="evenodd" d="M11.601.69v6.161c-.01 3.713-.21 6.231-5.303 8.776l-.389.195-.39-.195C.434 13.077.234 10.558.224 6.851V.691H11.6Zm-1.73 1.725H1.952v4.307c0 3.447.125 5.144 3.963 7.165 3.778-1.989 3.956-3.664 3.962-6.998V2.415H9.87Zm50.74-.238c2.6 0 3.952 1.102 4.655 2.767l-2.843.773c-.217-.957-.833-1.443-1.86-1.443-1.465 0-2.584 1.118-2.584 3.431v.151c0 2.33.925 3.448 2.622 3.448 1.449 0 2.26-.956 2.39-2.043h-2.244v-2.14h4.719v6.026H63.4l-.21-2.902-.028.14c-.346 1.8-1.567 2.973-3.421 2.973-2.946 0-4.633-2.313-4.633-5.502 0-3.431 2.016-5.684 5.514-5.684l-.011.005ZM29.186 4.792c2.616 0 3.821 1.654 3.821 3.967v.076c0 .205 0 .707-.016.75h-5.303c.114 1.33.8 1.914 1.806 1.914.746 0 1.432-.325 1.79-.924l1.464 1.134c-.714.99-1.838 1.638-3.53 1.638-2.486 0-4.151-1.427-4.151-4.226 0-2.8 1.66-4.323 4.113-4.323l.006-.006Zm21.53.05c1.724 0 2.621.583 3.237 1.345l-1.4 1.329c-.227-.39-.746-.973-1.594-.973-.616 0-.979.276-.979.649 0 .616.817.843 1.92 1.216 1.091.373 2.145.907 2.145 2.415 0 1.378-1.27 2.508-3.513 2.508-1.476 0-2.816-.552-3.514-1.557l1.384-1.313c.422.584 1.027 1.119 1.968 1.119.55 0 .94-.26.94-.665 0-.6-.94-.875-2.113-1.291-.995-.34-1.898-1.022-1.898-2.313 0-1.292 1.2-2.465 3.416-2.465v-.005Zm29.464-.028c2.476 0 3.546 1.135 3.546 3.107v2.6c0 1.686.211 2.431.47 2.626h-2.594c-.184-.162-.357-.568-.405-1.61-.39 1.28-1.481 1.783-2.557 1.783-1.595 0-2.497-.908-2.497-2.216 0-1.556 1.319-2.172 3.092-2.529 1.172-.243 1.837-.373 1.95-.519v-.2c0-.68-.323-1.167-1.27-1.167a1.906 1.906 0 0 0-1.805 1.184l-1.897-1.054c.6-1.194 2.08-2.005 3.967-2.005Zm-10.437.205v4.664c0 1.216.243 1.556.93 1.556.767 0 1.318-.897 1.318-2.02V5.024h2.687v8.127h-2.47v-1.005l.064-1.216h-.14c-.13.957-.833 2.378-2.487 2.378-1.654 0-2.492-.908-2.492-3.204V5.018h2.6-.01Zm30.481-3.674v11.802h-2.454l.064-1.989.033-.324-.065.097c-.227 1.346-1.2 2.362-2.713 2.362-1.79 0-3.109-1.443-3.109-4.242 0-2.962 1.498-4.291 3.32-4.291 1.448 0 2.161.924 2.388 1.767h.114l-.162-1.735V1.345h2.584Zm-9.13 3.529v2.988h-.6c-1.74 0-2.227.697-2.227 2.507v2.789h-2.697V5.025h2.356V6.37l-.146 2.378h.146c.2-2.156.957-3.874 2.963-3.874h.21-.005Zm-74.146-2.46 3.043 5.053 1.27 2.524-.243-2.832V2.415h2.552v10.737H21.13l-3.627-5.717-1.2-2.313.319 2.54v5.49h-2.52V2.415h2.85-.006ZM36.444 5.02l.649 4.08.276 2.221h.113l.39-2.22.962-4.08h2.875l.833 4.08.356 2.253h.13l.276-2.254.713-4.08h2.54l-2.178 8.128h-3.124l-.816-3.87-.325-2.426h-.113l-.34 2.427-.925 3.869h-2.924l-2.13-8.128h2.768-.006Zm44.74 3.88c-.2.195-.518.34-1.01.498-.892.275-1.465.648-1.465 1.329 0 .616.422.924.93.924.665.01 1.449-.378 1.546-1.351v-1.4ZM96.26 6.495c-.859 0-1.497.745-1.497 2.399s.438 2.62 1.433 2.62c.994 0 1.535-1.134 1.535-2.344v-.633c0-1.07-.357-2.042-1.465-2.042h-.006Zm-67.102-.022c-.844 0-1.384.492-1.433 1.783h2.714V8.16c0-1.037-.325-1.686-1.287-1.686h.006Z" clip-rule="evenodd"/></svg>